<svg width="139" height="91" viewBox="0 0 139 91" fill="none" xmlns="http://www.w3.org/2000/svg">
<path fill-rule="evenodd" clip-rule="evenodd" d="M37.738 39.0372C37.0914 39.1125 36.5979 39.6363 36.5519 40.297C36.5323 40.5815 36.5383 40.601 37.1857 42.2619C38.6578 46.0397 39.0147 46.9495 39.0743 47.0775C39.2199 47.3875 39.4236 47.6788 39.6794 47.9406C39.8756 48.1416 40.0046 48.2492 40.2227 48.3952C40.6067 48.6511 40.7976 48.7218 42.2916 49.1628C43.747 49.5925 44.5423 49.8785 45.2282 50.2179C46.1163 50.6574 46.7357 51.157 47.1273 51.7508C47.4087 52.1768 47.6577 52.9398 47.7656 53.7082C47.8079 54.0085 47.8086 54.6722 47.7664 54.9439C47.6751 55.5331 47.4925 56.0268 47.2133 56.4399C47.0647 56.6597 47.1167 56.6228 47.3325 56.3549C47.9437 55.5971 48.5662 54.3019 48.8838 53.1272C49.2679 51.7057 49.3207 50.1795 49.034 48.7346C48.4764 45.9208 46.6957 43.4931 44.1877 42.1272C44.03 42.0414 43.4301 41.7276 42.616 41.3054C42.4923 41.2415 42.324 41.1534 42.2418 41.1105C42.1595 41.0676 41.9913 40.9796 41.8675 40.9156C41.7438 40.8516 41.3884 40.6665 41.0775 40.5055C40.7667 40.3437 40.4188 40.163 40.3042 40.1036C39.9556 39.9222 39.7217 39.8003 39.5474 39.7093C38.7408 39.2886 38.3997 39.1178 38.3024 39.0884C38.2006 39.0576 37.941 39.0177 37.8761 39.0229C37.8625 39.0229 37.8007 39.0305 37.738 39.0372Z" fill="#F9AE3B"/>
<path d="M39.4962 53.1413C39.4516 53.1676 39.389 53.206 39.3566 53.2263C39.3249 53.2467 39.2532 53.2911 39.1989 53.3242C38.9974 53.4476 38.4617 53.7765 38.0014 54.0602C37.6989 54.246 37.6544 54.2739 37.2696 54.5117C37.1322 54.5967 36.9866 54.6863 36.9451 54.7104C36.9036 54.7352 36.7278 54.8428 36.5543 54.9504C36.3807 55.0581 36.0774 55.2447 35.8805 55.3651C35.6835 55.4855 35.3319 55.7022 35.0988 55.846C34.8656 55.9897 34.5586 56.1786 34.4167 56.2651C34.2749 56.3517 34.1443 56.4352 34.1255 56.451C34.0983 56.4744 32.8375 57.2532 32.2044 57.6378C31.7238 57.9298 31.1677 58.1247 30.5988 58.2015C30.334 58.2368 29.8322 58.2376 29.5681 58.2015C28.8521 58.1051 28.1919 57.8387 27.6268 57.418C27.4049 57.2532 26.9877 56.8371 26.8285 56.6218C26.4527 56.1154 26.209 55.5728 26.083 54.958C26.0543 54.8165 26.0264 54.6968 26.0219 54.6923C26.0098 54.6803 26.0317 54.894 26.0694 55.1732C26.1094 55.4637 26.1947 55.8836 26.286 56.2433C26.9945 59.024 29.0105 61.2854 31.7404 62.3615C32.5266 62.6716 33.3196 62.8665 34.1828 62.9621C34.5072 62.9982 35.4247 63.0125 35.7635 62.9869C37.3156 62.8695 38.6669 62.4142 40.053 61.5405C40.1767 61.463 40.4084 61.317 40.5683 61.2162C40.7283 61.1153 40.9305 60.9881 41.0173 60.9325C41.104 60.8768 41.2089 60.8113 41.2504 60.7865C41.2919 60.7616 41.3742 60.7105 41.433 60.6721C41.4926 60.6337 41.7469 60.4734 41.9982 60.3154L43.0039 59.6817L43.3495 59.4642L43.3616 59.4567L43.3993 59.4326L43.4174 59.4213L43.6717 59.261L44.5507 58.7072C45.6704 58.0058 46.0039 57.759 46.5245 57.251C46.7411 57.0395 47.0685 56.6775 47.0844 56.6316C47.0874 56.6226 47.1455 56.5331 47.2134 56.433C47.4888 56.0266 47.6722 55.5291 47.7635 54.9422C47.8057 54.6705 47.805 54.0067 47.7627 53.7065C47.6805 53.1255 47.4948 52.467 47.2941 52.0479C46.9652 51.36 46.265 50.7354 45.2584 50.2319C44.9808 50.0927 44.6933 49.9655 44.6616 49.9678C44.6465 49.9686 43.7102 50.5397 42.5799 51.2366C41.4504 51.9335 40.4702 52.5385 40.4016 52.5814C40.3329 52.6235 40.2152 52.6958 40.1398 52.7409L39.4962 53.1413Z" fill="#F9AE3B"/>
<path d="M26.0068 49.7971L26.0113 54.6525L26.0747 54.9347C26.2716 55.8159 26.6134 56.4519 27.2065 57.0426C27.4857 57.3203 27.6992 57.4874 28.0017 57.6665C28.6416 58.0442 29.3305 58.2309 30.085 58.2301C30.875 58.2294 31.5593 58.033 32.2633 57.6033C32.3825 57.531 32.848 57.245 33.2985 56.9674L34.1172 56.4631V50.7024V44.9416V39.6715C34.1172 36.3091 34.1111 34.3126 34.0998 34.1553C34.0326 33.171 33.6199 32.2657 32.9258 31.5816C32.713 31.3716 32.5304 31.2309 31.9886 30.8591C31.7185 30.674 31.2251 30.3346 30.8908 30.1051C30.5573 29.8756 30.0073 29.4978 29.6685 29.2652C29.3297 29.0327 28.8476 28.7008 28.5956 28.5277C28.0719 28.1673 28.0304 28.1424 27.872 28.086C27.666 28.0122 27.4479 27.9852 27.2397 28.0077C26.6346 28.0732 26.1501 28.5089 26.0241 29.1012C26.0045 29.193 26.0008 30.4197 26.0008 37.076V44.9424H26L26.0068 49.7971Z" fill="#F9AE3B"/>
<path d="M60.0332 55.7348V35.1729H66.5802C68.5736 35.1729 70.1597 35.6078 71.3231 36.4785C72.4866 37.3492 73.0691 38.4811 73.0691 39.874C73.0691 41.0352 72.7348 42.0504 72.0799 42.9211C71.3797 43.8046 70.4177 44.4443 69.3304 44.7498V44.8077C70.7565 44.9673 71.8762 45.4896 72.7205 46.3896C73.5792 47.2603 74.0009 48.4215 74.0009 49.8288C74.0009 51.5845 73.3022 53.0211 71.92 54.095C70.5369 55.1689 68.7774 55.7348 66.6526 55.7348H60.0332ZM63.4519 37.9151V43.7632H65.6635C66.8564 43.7632 67.7874 43.4727 68.4567 42.9362C69.1403 42.3559 69.4745 41.5718 69.4745 40.5566C69.4745 38.7866 68.296 37.9159 65.9396 37.9159H63.4519V37.9151ZM63.4519 46.5055V53.006H66.3621C67.6418 53.006 68.6317 52.7155 69.3153 52.1353C70.014 51.5401 70.3634 50.7281 70.3634 49.6978C70.3634 47.5643 68.8936 46.5055 65.926 46.5055H63.4519ZM78.1757 37.9738C77.637 37.9738 77.1571 37.785 76.7791 37.4373C76.386 37.0888 76.1973 36.6388 76.1973 36.088C76.1973 35.5363 76.3867 35.0871 76.7791 34.7236C77.1722 34.3608 77.6377 34.187 78.19 34.187C78.7423 34.187 79.223 34.3608 79.6161 34.7236C80.0092 35.0863 80.1978 35.5506 80.1978 36.088C80.1978 36.6102 80.0084 37.0459 79.6161 37.423C79.223 37.785 78.7431 37.9738 78.1757 37.9738ZM79.8341 55.7348H76.5029V41.0495H79.8492L79.8341 55.7348ZM96.3476 55.7348H93.0157V47.4635C93.0157 44.7062 92.0408 43.3425 90.1062 43.3425C89.0876 43.3425 88.2441 43.7346 87.5748 44.5037C86.901 45.3014 86.5486 46.3204 86.5856 47.3627V55.7348H83.2393V41.0495H86.5856V43.487H86.6437C87.0994 42.6246 87.7876 41.9074 88.6311 41.4145C89.4747 40.9223 90.439 40.6747 91.4153 40.7011C93.0157 40.7011 94.238 41.2234 95.0815 42.2686C95.9251 43.2989 96.3476 44.7934 96.3476 46.7666V55.7348ZM112.86 54.5593C112.86 59.943 110.155 62.6417 104.713 62.6417C102.99 62.6808 101.28 62.3542 99.6939 61.6837V58.6366C101.294 59.5652 102.837 60.0153 104.277 60.0153C107.769 60.0153 109.529 58.3032 109.529 54.8641V53.2679H109.471C108.987 54.1522 108.265 54.8836 107.386 55.3788C106.507 55.874 105.505 56.1125 104.496 56.0689C103.673 56.0952 102.854 55.9334 102.102 55.597C101.351 55.2599 100.687 54.7565 100.16 54.1243C99.0005 52.62 98.418 50.7521 98.5161 48.8572C98.5161 46.361 99.0979 44.3878 100.291 42.9076C101.484 41.4273 103.084 40.7018 105.15 40.7018C107.084 40.7018 108.526 41.5003 109.471 43.0814H109.529V41.0495H112.875L112.86 54.5593ZM109.558 49.016V47.1008C109.558 46.0705 109.208 45.1855 108.525 44.4601C108.203 44.1034 107.807 43.8204 107.365 43.63C106.924 43.4396 106.445 43.347 105.965 43.3576C104.699 43.3576 103.71 43.8362 102.996 44.7648C102.217 45.9125 101.838 47.2844 101.92 48.6683C101.92 50.1192 102.269 51.2661 102.938 52.1361C103.636 53.0068 104.538 53.4275 105.673 53.4275C106.837 53.4275 107.768 53.0068 108.481 52.194C109.208 51.3527 109.558 50.3074 109.558 49.0017V49.016Z" fill="#F9AE3B"/>
</svg>
